<mxfile host="app.diagrams.net" modified="2024-12-14T19:38:27.632Z" agent="Mozilla/5.0 (Windows NT 10.0; Win64; x64) AppleWebKit/537.36 (KHTML, like Gecko) Chrome/131.0.0.0 Safari/537.36" etag="Cgo73qlR99M-a0ZElrrM" version="21.6.8" type="device">
  <diagram name="Page-1" id="kmW54r8VFoWcy9PadUAK">
    <mxGraphModel dx="1050" dy="557" grid="1" gridSize="10" guides="1" tooltips="1" connect="1" arrows="1" fold="1" page="1" pageScale="1" pageWidth="850" pageHeight="1100" math="0" shadow="0">
      <root>
        <mxCell id="0" />
        <mxCell id="1" parent="0" />
        <mxCell id="PfbJVr2-cLRhhjQGfUaw-1" value="Clients" style="shape=umlActor;verticalLabelPosition=bottom;verticalAlign=top;html=1;outlineConnect=0;" vertex="1" parent="1">
          <mxGeometry x="240" y="80" width="30" height="60" as="geometry" />
        </mxCell>
        <mxCell id="PfbJVr2-cLRhhjQGfUaw-2" value="" style="swimlane;startSize=0;" vertex="1" parent="1">
          <mxGeometry x="210" y="190" width="600" height="280" as="geometry" />
        </mxCell>
        <mxCell id="PfbJVr2-cLRhhjQGfUaw-11" value="Application WEB" style="label;whiteSpace=wrap;html=1;image=img/clipart/Gear_128x128.png" vertex="1" parent="PfbJVr2-cLRhhjQGfUaw-2">
          <mxGeometry x="330" y="80" width="140" height="60" as="geometry" />
        </mxCell>
        <mxCell id="PfbJVr2-cLRhhjQGfUaw-10" value="Application Mobile" style="label;whiteSpace=wrap;html=1;image=img/clipart/Gear_128x128.png" vertex="1" parent="PfbJVr2-cLRhhjQGfUaw-2">
          <mxGeometry x="75" y="70" width="140" height="60" as="geometry" />
        </mxCell>
        <mxCell id="PfbJVr2-cLRhhjQGfUaw-15" value="" style="shape=datastore;whiteSpace=wrap;html=1;" vertex="1" parent="PfbJVr2-cLRhhjQGfUaw-2">
          <mxGeometry x="470" y="190" width="60" height="60" as="geometry" />
        </mxCell>
        <mxCell id="PfbJVr2-cLRhhjQGfUaw-16" value="API" style="html=1;whiteSpace=wrap;" vertex="1" parent="PfbJVr2-cLRhhjQGfUaw-2">
          <mxGeometry x="190" y="190" width="110" height="50" as="geometry" />
        </mxCell>
        <mxCell id="PfbJVr2-cLRhhjQGfUaw-21" value="" style="endArrow=open;endFill=1;endSize=12;html=1;rounded=0;" edge="1" parent="PfbJVr2-cLRhhjQGfUaw-2" source="PfbJVr2-cLRhhjQGfUaw-16" target="PfbJVr2-cLRhhjQGfUaw-11">
          <mxGeometry width="160" relative="1" as="geometry">
            <mxPoint x="300" y="90" as="sourcePoint" />
            <mxPoint x="460" y="90" as="targetPoint" />
          </mxGeometry>
        </mxCell>
        <mxCell id="PfbJVr2-cLRhhjQGfUaw-22" value="" style="endArrow=open;endFill=1;endSize=12;html=1;rounded=0;" edge="1" parent="PfbJVr2-cLRhhjQGfUaw-2" source="PfbJVr2-cLRhhjQGfUaw-16" target="PfbJVr2-cLRhhjQGfUaw-10">
          <mxGeometry width="160" relative="1" as="geometry">
            <mxPoint x="300" y="90" as="sourcePoint" />
            <mxPoint x="460" y="90" as="targetPoint" />
          </mxGeometry>
        </mxCell>
        <mxCell id="PfbJVr2-cLRhhjQGfUaw-23" value="HTTPS" style="text;html=1;strokeColor=none;fillColor=none;align=center;verticalAlign=middle;whiteSpace=wrap;rounded=0;" vertex="1" parent="PfbJVr2-cLRhhjQGfUaw-2">
          <mxGeometry x="215" y="150" width="60" height="30" as="geometry" />
        </mxCell>
        <mxCell id="PfbJVr2-cLRhhjQGfUaw-24" value="Base de donnÃ©es" style="text;html=1;strokeColor=none;fillColor=none;align=center;verticalAlign=middle;whiteSpace=wrap;rounded=0;" vertex="1" parent="PfbJVr2-cLRhhjQGfUaw-2">
          <mxGeometry x="480" y="250" width="60" height="30" as="geometry" />
        </mxCell>
        <mxCell id="PfbJVr2-cLRhhjQGfUaw-25" value="" style="endArrow=classic;startArrow=classic;html=1;rounded=0;exitX=1;exitY=0.5;exitDx=0;exitDy=0;" edge="1" parent="PfbJVr2-cLRhhjQGfUaw-2" source="PfbJVr2-cLRhhjQGfUaw-16" target="PfbJVr2-cLRhhjQGfUaw-15">
          <mxGeometry width="50" height="50" relative="1" as="geometry">
            <mxPoint x="360" y="120" as="sourcePoint" />
            <mxPoint x="410" y="70" as="targetPoint" />
            <Array as="points" />
          </mxGeometry>
        </mxCell>
        <mxCell id="PfbJVr2-cLRhhjQGfUaw-3" value="Administrateur&lt;br&gt;" style="shape=umlActor;verticalLabelPosition=bottom;verticalAlign=top;html=1;outlineConnect=0;" vertex="1" parent="1">
          <mxGeometry x="710" y="90" width="30" height="60" as="geometry" />
        </mxCell>
        <mxCell id="PfbJVr2-cLRhhjQGfUaw-20" value="" style="endArrow=open;endFill=1;endSize=12;html=1;rounded=0;" edge="1" parent="1" source="PfbJVr2-cLRhhjQGfUaw-3" target="PfbJVr2-cLRhhjQGfUaw-11">
          <mxGeometry width="160" relative="1" as="geometry">
            <mxPoint x="270" y="160" as="sourcePoint" />
            <mxPoint x="430" y="160" as="targetPoint" />
          </mxGeometry>
        </mxCell>
        <mxCell id="PfbJVr2-cLRhhjQGfUaw-19" value="" style="endArrow=open;endFill=1;endSize=12;html=1;rounded=0;" edge="1" parent="1" source="PfbJVr2-cLRhhjQGfUaw-1" target="PfbJVr2-cLRhhjQGfUaw-10">
          <mxGeometry width="160" relative="1" as="geometry">
            <mxPoint x="330" y="140" as="sourcePoint" />
            <mxPoint x="270" y="280" as="targetPoint" />
          </mxGeometry>
        </mxCell>
        <mxCell id="PfbJVr2-cLRhhjQGfUaw-27" value="Livreur" style="shape=umlActor;verticalLabelPosition=bottom;verticalAlign=top;html=1;outlineConnect=0;" vertex="1" parent="1">
          <mxGeometry x="430" y="90" width="30" height="60" as="geometry" />
        </mxCell>
        <mxCell id="PfbJVr2-cLRhhjQGfUaw-28" value="" style="endArrow=open;endFill=1;endSize=12;html=1;rounded=0;entryX=0.5;entryY=0;entryDx=0;entryDy=0;" edge="1" parent="1" source="PfbJVr2-cLRhhjQGfUaw-27" target="PfbJVr2-cLRhhjQGfUaw-10">
          <mxGeometry width="160" relative="1" as="geometry">
            <mxPoint x="280" y="147" as="sourcePoint" />
            <mxPoint x="348" y="270" as="targetPoint" />
          </mxGeometry>
        </mxCell>
      </root>
    </mxGraphModel>
  </diagram>
</mxfile>
